<?xml version="1.0" encoding="utf-8"?>
<!-- Generator: Adobe Illustrator 27.5.0, SVG Export Plug-In . SVG Version: 6.00 Build 0)  -->
<svg version="1.1" id="Capa_1" xmlns="http://www.w3.org/2000/svg" xmlns:xlink="http://www.w3.org/1999/xlink" x="0px" y="0px"
	 viewBox="0 0 2122 2122" style="enable-background:new 0 0 2122 2122;" xml:space="preserve">
<g>
	<path style="fill:#EFCBBC;" d="M1091.913,1363.778c-81.008-133.428-139.337-275.922-227.001-405.822l2.422,98.787l1.851,75.552
		L682.94,1257.206l-10.952,7.342C806.672,1319.057,945.58,1376.689,1091.913,1363.778z"/>
	<path style="fill:#CA8080;" d="M1013.906,1418.01c77.793,0,155.62-8.701,226.119-18.475
		c88.634-11.318,160.955-61.301,217.028-129.807l-204.921-137.432l1.573-64.073l4.215-171.922
		c-12.117,15.698-26.821,31.04-44.795,45.408l-53.189,105.004H975.787l-69.267-103.903c-17.067-13.476-31.196-27.834-43.021-42.548
		l0.775,31.644l0.638,26.051c87.664,129.9,145.993,272.394,227.001,405.822c-146.333,12.911-285.242-44.721-419.926-99.23
		l-35.581,23.864C733.405,1389.693,873.576,1418.01,1013.906,1418.01z"/>
	<path style="fill:#F0C9BD;" d="M751.617,656.788c18.445,0,36.862,7.625,52.969,20.453c-1.086-9.573-2.368-21.993-3.625-36.775
		c-11.459-15.586-28.629-35.781-39.683-34.202c-13.311,1.9-27.674,21.919-28.015,60.545
		C736.942,660.695,742.652,656.788,751.617,656.788z"/>
	<path style="fill:#CA8080;" d="M808.284,705.523c-0.536-3.508-0.824-5.525-0.824-5.525s-1.213-8.083-2.875-22.758
		c-16.107-12.828-34.524-20.453-52.969-20.453c-8.965,0-14.675,3.907-18.354,10.022c-0.117,13.121,1.374,28.375,5.087,45.812
		c12.482,58.602,49.915,102.84,82.387,109.549C799.344,758.77,808.284,705.523,808.284,705.523z"/>
	<path style="fill:#F0C9BD;" d="M1313.935,676.87c15.995-12.604,34.236-20.083,52.507-20.083c8.965,0,14.675,3.907,18.353,10.022
		c-0.341-38.626-14.704-58.646-28.014-60.545c-10.422-1.491-26.27,16.375-37.657,31.483c-1.111,11.011-2.397,21.413-3.893,30.69
		C1314.841,670.853,1314.408,673.708,1313.935,676.87z"/>
	<path style="fill:#CA8080;" d="M1366.442,656.788c-18.27,0-36.512,7.479-52.507,20.083c-1.165,7.839-2.568,17.759-4.17,28.94
		l0.238-0.287c0,0,8.94,53.223-12.448,116.604c32.419-6.874,69.705-51.045,82.153-109.505c3.712-17.437,5.204-32.692,5.086-45.812
		C1381.117,660.695,1375.407,656.788,1366.442,656.788z"/>
	<path style="fill:#EFCBBC;" d="M807.461,699.998c0,0,0.287,2.017,0.824,5.525l0.005,0.005l116.57,140.77l5.072-23.216
		l130.728-21.574l-51.22-15.182c-108.668-8.316-190.275-43.493-190.275-85.632c0-18.88,16.434-36.346,44.283-50.646
		c-4.039-4.584-5.808-8.19-6.1-8.828c-4.209-4.288-9.364-17.671-11.722-24.224c-5.077,0.853-7.97,1.511-7.97,1.511
		c0.716-9.004,7.693-16.141,16.648-17.33c44.745-5.958,95.888,7.133,110.728,14.743c2.081,1.067,4.039,2.202,5.94,3.362
		c27.235-3.922,56.872-6.099,87.922-6.099c32.253,0,62.996,2.338,91.084,6.557c2.125-1.325,4.327-2.616,6.675-3.82
		c14.84-7.61,65.983-20.702,110.733-14.743c8.95,1.189,15.927,8.327,16.648,17.33c0,0-2.894-0.658-7.971-1.511
		c-2.358,6.548-7.508,19.922-11.722,24.214c-0.307,0.682-2.407,4.975-7.352,10.203c26.255,14.036,41.632,31.001,41.632,49.281
		c0,41.496-79.147,76.219-185.33,85.218l-52.628,15.596l127.444,19.508l6.465,23.903l115.196-139.108
		c1.602-11.181,3.006-21.101,4.17-28.94c0.472-3.162,0.906-6.017,1.296-8.433c1.496-9.277,2.782-19.679,3.893-30.69
		c1.223-12.097,2.241-24.94,3.079-37.948c-8.614-160.18-85.208-318.572-236.565-380.287c-8.053-0.55-16.346-0.853-24.945-0.853
		c-232.648,0-265.588,165.696-265.588,282.348c0,56.287,2.874,104.546,5.856,139.459c1.257,14.782,2.538,27.201,3.625,36.775
		C806.247,691.915,807.461,699.998,807.461,699.998z M1116.42,587.302c0.619-6.261,2.168-12.102,4.263-17.491l-0.536,0.507
		c0,0,3.82-28.024,22.08-43.737c18.256-15.708,54.772-14.86,54.772-14.86c60.716,3.396,107.211,36.092,107.211,36.092
		c-26.621-9.9-50.738-12.473-71.196-12.453c26.733,15.844,39.23,41.749,39.23,41.749
		C1213.653,567.769,1113.025,621.694,1116.42,587.302z M924.684,511.721c0,0,36.512-0.848,54.772,14.86
		c10.27,8.838,15.971,21.574,18.996,31.025c5.749,9.437,8.497,20.585,2.587,32.098c-24.438,47.6-119.649-52.741-178.266-43.717
		c-1.764,0.599-3.517,1.159-5.305,1.827C817.468,547.813,863.963,515.117,924.684,511.721z"/>
	<path style="fill:#CA8080;" d="M1322.203,599.799c4.044-62.782,4.01-128.984,4.01-128.984s-8.321-235.527-240.575-251.303
		C1236.995,281.227,1313.59,439.618,1322.203,599.799z"/>
	<path style="fill:#F1BFB5;" d="M1120.849,783.672l-7.561,2.241c106.183-8.999,185.33-43.722,185.33-85.218
		c0-18.28-15.377-35.245-41.632-49.281c-8.419,8.906-25.072,20.316-55.372,20.38c-21.378,0.049-35.177-3.634-39.868-5.116
		c-23.936-4.073-41.101-11.868-41.101-11.868s0.921-1.149,2.49-3.04l-3.937-1.934c0,0,10.139-17.252,30.777-30.095
		c-28.087-4.219-58.831-6.557-91.084-6.557c-31.05,0-60.687,2.178-87.922,6.099c21.135,12.887,31.513,30.553,31.513,30.553
		l-3.932,1.934c1.569,1.891,2.49,3.04,2.49,3.04s-17.169,7.8-41.111,11.868c-4.692,1.481-18.485,5.165-39.864,5.116
		c-31.878-0.068-48.653-12.687-56.618-21.744c-27.849,14.3-44.283,31.766-44.283,50.646c0,42.139,81.608,77.315,190.275,85.632
		l-8.965-2.655C1000.474,783.672,1062.252,757.562,1120.849,783.672z"/>
	<path style="fill:#1F4D73;" d="M1891.84,1768.397c-15.284-104.497-45.929-199.474-63.421-226.87
		c-33.111-51.805-86.202-77.568-103.61-84.965l0.628-7.196l-0.273-0.57l-267.245-179.235l-0.828,0.122l-0.039,0.044
		c-56.073,68.507-128.394,118.49-217.028,129.807c-70.499,9.774-148.326,18.475-226.119,18.475
		c-140.331,0-280.501-28.317-377.5-129.598l-0.078-0.078l-0.794-0.083l-47.844,32.088l0.521-0.083l0.4,0.355
		c85.622,201.408,180.589,397.208,297.68,581.715l0.019,0.638l-0.546,0.322H1936.99l0.443-0.185l0.181-0.453
		C1936.424,1848.64,1893.014,1770.521,1891.84,1768.397z"/>
	<path style="fill:#296597;" d="M886.292,1902.326c-117.091-184.506-212.058-380.306-297.68-581.715l-0.4-0.355l-0.521,0.083
		l-191.532,128.458l-0.278,0.57l0.634,7.191c-17.398,7.396-70.5,33.16-103.615,84.969c-17.491,27.401-48.141,122.373-63.42,226.87
		c-1.174,2.124-44.585,80.243-45.773,134.25l0.181,0.453l0.443,0.185h701.436l0.546-0.322L886.292,1902.326z"/>
	<path style="fill:#856445;" d="M906.521,942.809l69.267,103.903h184.151l53.189-105.004c17.974-14.368,32.677-29.71,44.795-45.408
		c19.011-24.628,31.517-50.119,39.634-74.173c21.388-63.381,12.448-116.604,12.448-116.604l-0.238,0.287l-115.196,139.108
		l-6.465-23.903l-127.444-19.508l-130.728,21.574l-5.072,23.216l-116.57-140.77l-0.005-0.005c0,0-8.94,53.247,12.453,116.648
		c8.551,25.335,21.993,52.258,42.762,78.09C875.325,914.975,889.454,929.333,906.521,942.809z M944.357,838.658l114.782-15.576
		l112.389,17.642l17.832,48.463l-124.41,80.673l-134.597-63.654L944.357,838.658z"/>
	<path style="fill:#EFCBBC;" d="M1189.361,889.187l-17.832-48.463l-112.389-17.642l-114.782,15.576l-14.003,67.547l134.597,63.654
		L1189.361,889.187z M948.883,848.656c0,0,4.492,0.497,7.528,1.998c3.03,1.496,52.37-9.929,105.125-9.929
		c30.042,0,95.196,6.943,99.064,6.538c3.874-0.404,8.297-2.202,8.297-2.202s-0.361,7.659-3.298,9.34
		c-2.933,1.686-50.324,25.759-110.748,28.277c-61.145,2.548-96.014-22.294-100.633-25.953
		C951.241,854.361,948.883,848.656,948.883,848.656z M1033.02,903.881c0,0,23.079-13.608,52.229-3.396
		C1103.08,906.731,1046.735,929.367,1033.02,903.881z"/>
	<path style="fill:#CA8080;" d="M1054.851,882.677c60.424-2.518,107.815-26.592,110.748-28.277c2.938-1.681,3.298-9.34,3.298-9.34
		s-4.424,1.798-8.297,2.202c-3.868,0.405-69.023-6.538-99.064-6.538c-52.755,0-102.095,11.425-105.125,9.929
		c-3.035-1.501-7.528-1.998-7.528-1.998s2.358,5.705,5.335,8.068C958.837,860.383,993.707,885.226,1054.851,882.677z
		 M1054.555,845.284c33.617-0.531,93.603,9.048,93.603,9.048s-48.317,23.922-93.881,25.165
		c-45.559,1.237-84.877-22.329-84.877-22.329S1020.932,845.815,1054.555,845.284z"/>
	<path style="fill:#FFFFFF;" d="M1148.157,854.332c0,0-59.986-9.578-93.603-9.048c-33.623,0.531-85.155,11.883-85.155,11.883
		s39.318,23.566,84.877,22.329C1099.841,878.254,1148.157,854.332,1148.157,854.332z"/>
	<path style="fill:#CA8080;" d="M1085.249,900.485c-29.15-10.212-52.229,3.396-52.229,3.396
		C1046.735,929.367,1103.08,906.731,1085.249,900.485z"/>
	<path style="fill:#CA8080;" d="M1120.849,783.672c-58.597-26.11-120.375,0-120.375,0l8.965,2.655l51.22,15.182l52.628-15.596
		L1120.849,783.672z M1017.789,784.373c0,0,15.922-11.766,33.116,9.408L1017.789,784.373z M1069.906,793.781
		c17.199-21.174,33.121-9.408,33.121-9.408L1069.906,793.781z"/>
	<path style="fill:#4C0D18;" d="M1017.789,784.373l33.116,9.408C1033.711,772.607,1017.789,784.373,1017.789,784.373z"/>
	<path style="fill:#4C0D18;" d="M1069.906,793.781l33.121-9.408C1103.027,784.373,1087.105,772.607,1069.906,793.781z"/>
	<path style="fill:#FFFFFF;" d="M1222.856,613.275c4.541,5.876,7.187,13.218,7.187,21.174c0,14.455-8.819,26.845-21.369,32.161
		c17.588-3.026,37.573-10.178,55.746-25.574l-0.083,0.175c4.214-4.292,9.364-17.666,11.722-24.214
		C1265.667,615.248,1246.038,612.695,1222.856,613.275z"/>
	<path style="fill:#FFFFFF;" d="M1187.202,668.564c-15.591-3.537-27.264-17.462-27.264-34.115c0-3.942,0.712-7.693,1.92-11.225
		l-0.034,0.01c-11.712,3.922-15.62,5.554-38.684,28.541l-0.004-0.005c-1.569,1.891-2.49,3.04-2.49,3.04s17.165,7.795,41.101,11.868
		c-1.179-0.375-1.808-0.614-1.808-0.614S1170.949,668.753,1187.202,668.564z"/>
	<path style="fill:#999999;" d="M1187.202,668.564c6.451-0.078,13.73-0.624,21.472-1.954c12.55-5.316,21.369-17.706,21.369-32.161
		c0-7.957-2.646-15.298-7.187-21.174c-19.011,0.473-40.385,3.05-60.998,9.949c-1.208,3.532-1.92,7.284-1.92,11.225
		C1159.938,651.102,1171.611,665.026,1187.202,668.564z M1194.997,619.024c1.988,0,3.873,0.409,5.623,1.091
		c1.72-2.528,4.619-4.195,7.912-4.195c5.281,0,9.559,4.283,9.559,9.564c0,4.648-3.323,8.516-7.727,9.374
		c-0.234,8.302-7.001,14.977-15.367,14.977c-8.506,0-15.405-6.899-15.405-15.405
		C1179.592,625.923,1186.491,619.024,1194.997,619.024z"/>
	<path style="fill:#4C0D18;" d="M1194.997,649.835c8.366,0,15.133-6.674,15.367-14.977c-0.594,0.117-1.203,0.185-1.832,0.185
		c-5.281,0-9.564-4.283-9.564-9.559c0-1.988,0.609-3.835,1.652-5.369c-1.749-0.682-3.635-1.091-5.623-1.091
		c-8.506,0-15.405,6.899-15.405,15.406C1179.592,642.936,1186.491,649.835,1194.997,649.835z"/>
	<path style="fill:#FFFFFF;" d="M1208.532,635.043c0.629,0,1.238-0.068,1.832-0.185c4.404-0.858,7.727-4.726,7.727-9.374
		c0-5.281-4.278-9.564-9.559-9.564c-3.293,0-6.192,1.666-7.912,4.195c-1.043,1.535-1.652,3.382-1.652,5.369
		C1198.968,630.761,1203.251,635.043,1208.532,635.043z"/>
	<path style="fill:#4C0D18;" d="M1119.198,649.835l3.937,1.934l0.004,0.005c23.065-22.987,26.972-24.618,38.684-28.541l0.034-0.01
		c20.614-6.899,41.988-9.476,60.998-9.949c23.182-0.58,42.811,1.973,53.204,3.722c5.077,0.853,7.971,1.511,7.971,1.511
		c-0.721-9.004-7.698-16.141-16.648-17.33c-44.75-5.958-95.893,7.133-110.733,14.743c-2.348,1.203-4.55,2.495-6.675,3.82
		C1129.336,632.583,1119.198,649.835,1119.198,649.835z"/>
	<path style="fill:#4C0D18;" d="M1208.674,666.61c-7.742,1.33-15.021,1.875-21.472,1.954c-16.253,0.19-27.264-2.5-27.264-2.5
		s0.629,0.238,1.808,0.614c4.692,1.481,18.49,5.165,39.868,5.116c30.3-0.063,46.953-11.474,55.372-20.38
		c4.945-5.228,7.045-9.52,7.352-10.203l0.083-0.175C1246.247,656.432,1226.262,663.584,1208.674,666.61z"/>
	<path style="fill:#CA8080;" d="M1272.245,577.109c0,0-12.496-25.905-39.23-41.749c-17.715,0.02-32.697,1.983-44.083,2.899
		c-36.531,2.948-64.287,27.834-68.248,31.552c-2.095,5.389-3.644,11.23-4.263,17.491
		C1113.025,621.694,1213.653,567.769,1272.245,577.109z"/>
	<path style="fill:#856445;" d="M1233.015,535.36c20.458-0.019,44.575,2.553,71.196,12.453c0,0-46.495-32.697-107.211-36.092
		c0,0-36.516-0.848-54.772,14.86c-18.261,15.712-22.08,43.737-22.08,43.737l0.536-0.507c3.961-3.717,31.718-28.604,68.248-31.552
		C1200.318,537.343,1215.3,535.38,1233.015,535.36z"/>
	<path style="fill:#FFFFFF;" d="M913.01,666.61c-12.551-5.316-21.374-17.706-21.374-32.161c0-7.957,2.65-15.298,7.186-21.174
		c-23.172-0.58-42.806,1.973-53.199,3.722c2.358,6.553,7.513,19.937,11.722,24.224l-0.083-0.185
		C875.436,656.437,895.422,663.584,913.01,666.61z"/>
	<path style="fill:#FFFFFF;" d="M959.855,623.233l-0.029-0.01c1.203,3.532,1.914,7.284,1.914,11.225
		c0,16.653-11.678,30.577-27.259,34.115c16.248,0.19,27.259-2.5,27.259-2.5s-0.628,0.238-1.812,0.614
		c23.941-4.068,41.111-11.868,41.111-11.868s-0.921-1.149-2.49-3.04l-0.005,0.005C975.48,628.788,971.568,627.156,959.855,623.233z"
		/>
	<path style="fill:#999999;" d="M961.741,634.449c0-3.942-0.711-7.693-1.914-11.225c-20.614-6.899-41.988-9.476-61.004-9.949
		c-4.536,5.876-7.186,13.218-7.186,21.174c0,14.455,8.823,26.845,21.374,32.161c7.742,1.33,15.021,1.875,21.471,1.954
		C950.062,665.026,961.741,651.102,961.741,634.449z M941.497,638.424c-1.769,6.558-7.698,11.41-14.816,11.41
		c-8.507,0-15.406-6.899-15.406-15.405c0-8.507,6.899-15.406,15.406-15.406c4.044,0,7.693,1.588,10.441,4.136
		c1.749-2.052,4.327-3.377,7.235-3.377c5.281,0,9.564,4.278,9.564,9.559c0,5.281-4.283,9.564-9.564,9.564
		C943.354,638.907,942.408,638.712,941.497,638.424z"/>
	<path style="fill:#4C0D18;" d="M934.798,629.343c0-2.373,0.891-4.512,2.324-6.182c-2.748-2.548-6.397-4.136-10.441-4.136
		c-8.507,0-15.406,6.899-15.406,15.406c0,8.506,6.899,15.405,15.406,15.405c7.118,0,13.047-4.852,14.816-11.41
		C937.624,637.202,934.798,633.62,934.798,629.343z"/>
	<path style="fill:#FFFFFF;" d="M953.921,629.343c0-5.281-4.283-9.559-9.564-9.559c-2.909,0-5.486,1.325-7.235,3.377
		c-1.432,1.671-2.324,3.81-2.324,6.182c0,4.278,2.826,7.859,6.699,9.082c0.911,0.288,1.856,0.482,2.86,0.482
		C949.639,638.907,953.921,634.624,953.921,629.343z"/>
	<path style="fill:#4C0D18;" d="M898.822,613.275c19.016,0.473,40.39,3.05,61.004,9.949l0.029,0.01
		c11.713,3.922,15.625,5.554,38.69,28.541l0.005-0.005l3.932-1.934c0,0-10.378-17.666-31.513-30.553
		c-1.9-1.159-3.859-2.294-5.94-3.362c-14.84-7.61-65.983-20.702-110.728-14.743c-8.955,1.189-15.932,8.327-16.648,17.33
		c0,0,2.894-0.658,7.97-1.511C856.016,615.248,875.651,612.695,898.822,613.275z"/>
	<path style="fill:#4C0D18;" d="M920.065,671.794c21.379,0.049,35.172-3.634,39.864-5.116c1.184-0.375,1.812-0.614,1.812-0.614
		s-11.011,2.689-27.259,2.5c-6.451-0.078-13.73-0.624-21.471-1.954c-17.588-3.026-37.574-10.173-55.747-25.574l0.083,0.185
		c0.292,0.638,2.061,4.244,6.1,8.828C871.412,659.107,888.187,671.725,920.065,671.794z"/>
	<path style="fill:#CA8080;" d="M932.747,538.259c-23.644-1.905-62.689-8.351-109.973,7.727
		c58.617-9.023,153.827,91.318,178.266,43.717c5.91-11.513,3.162-22.66-2.587-32.098c2.353,7.347,3.084,12.712,3.084,12.712
		S972.236,541.446,932.747,538.259z"/>
	<path style="fill:#856445;" d="M932.747,538.259c39.489,3.186,68.789,32.058,68.789,32.058s-0.731-5.364-3.084-12.712
		c-3.025-9.452-8.726-22.187-18.996-31.025c-18.26-15.708-54.772-14.86-54.772-14.86c-60.721,3.396-107.215,36.092-107.215,36.092
		c1.788-0.668,3.542-1.228,5.305-1.827C870.058,529.909,909.103,536.354,932.747,538.259z"/>
</g>
</svg>
